<?xml version="1.0" encoding="UTF-8" standalone="no"?>
<!-- Created with Inkscape (http://www.inkscape.org/) -->
<svg
   xmlns:dc="http://purl.org/dc/elements/1.1/"
   xmlns:cc="http://web.resource.org/cc/"
   xmlns:rdf="http://www.w3.org/1999/02/22-rdf-syntax-ns#"
   xmlns:svg="http://www.w3.org/2000/svg"
   xmlns="http://www.w3.org/2000/svg"
   xmlns:sodipodi="http://inkscape.sourceforge.net/DTD/sodipodi-0.dtd"
   xmlns:inkscape="http://www.inkscape.org/namespaces/inkscape"
   id="svg2"
   sodipodi:version="0.32"
   inkscape:version="0.43"
   width="210mm"
   height="297mm"
   sodipodi:docbase="/home/alpt/tmp/netsukuku/proto/doc/topology/fig"
   sodipodi:docname="qspn_g3.svg">
  <metadata
     id="metadata7">
    <rdf:RDF>
      <cc:Work
         rdf:about="">
        <dc:format>image/svg+xml</dc:format>
        <dc:type
           rdf:resource="http://purl.org/dc/dcmitype/StillImage" />
      </cc:Work>
    </rdf:RDF>
  </metadata>
  <defs
     id="defs5" />
  <sodipodi:namedview
     inkscape:cy="402.78401"
     inkscape:cx="305.25953"
     inkscape:zoom="0.86831672"
     inkscape:window-height="797"
     inkscape:window-width="1278"
     inkscape:pageshadow="2"
     inkscape:pageopacity="0.0"
     borderopacity="1.0"
     bordercolor="#666666"
     pagecolor="#ffffff"
     id="base"
     inkscape:window-x="0"
     inkscape:window-y="0"
     inkscape:current-layer="svg2" />
  <path
     style="fill:#000000"
     d="M -234.67013,631.84962 C -251.93371,628.80657 -258.88523,607.59718 -246.7991,594.84356 C -238.52279,586.11018 -224.30344,585.76147 -215.53887,594.07693 C -211.92839,597.50239 -208.95185,603.34551 -208.92214,607.06592 L -208.90169,609.6266 L -163.97342,609.626 L -119.04515,609.62539 L -110.31318,598.45213 L -101.58123,587.27886 L -84.603091,587.27886 L -67.624965,587.27886 L -59.813442,598.43454 L -52.001919,609.59021 L -7.0736472,609.60841 L 37.85463,609.6266 L 37.87507,607.06592 C 37.92523,600.78681 44.26668,592.50151 51.25287,589.58743 C 55.8882,587.65395 63.58538,587.65395 68.22071,589.58743 C 75.2069,592.50151 81.54835,600.78681 81.5985,607.06592 L 81.61895,609.6266 L 126.78001,609.6266 L 171.94108,609.6266 L 171.96152,607.06592 C 172.01168,600.78681 178.35313,592.50151 185.33932,589.58743 C 189.97465,587.65395 197.67183,587.65395 202.30716,589.58743 C 209.29335,592.50151 215.6348,600.78681 215.68496,607.06592 L 215.7054,609.6266 L 260.63368,609.626 L 305.56195,609.62539 L 314.29391,598.45213 L 323.02586,587.27886 L 340.004,587.27886 L 356.98213,587.27886 L 364.79365,598.43454 L 372.60517,609.59021 L 417.53345,609.60841 L 462.46172,609.6266 L 462.48217,607.06592 C 462.53232,600.78681 468.87377,592.50151 475.85996,589.58743 C 480.49529,587.65395 488.19247,587.65395 492.8278,589.58743 C 499.81399,592.50151 506.15545,600.78681 506.2056,607.06592 L 506.22605,609.6266 L 551.38711,609.6266 L 596.54817,609.6266 L 596.56862,607.06592 C 596.61877,600.78681 602.96022,592.50151 609.94641,589.58743 C 614.58174,587.65395 622.27892,587.65395 626.91425,589.58743 C 633.90047,592.50151 640.24192,600.78681 640.29202,607.06592 L 640.31251,609.6266 L 685.24078,609.626 L 730.16905,609.62539 L 738.90097,598.45213 L 747.63297,587.27886 L 764.61112,587.27886 L 781.58926,587.27886 L 789.40073,598.43454 L 797.21229,609.59021 L 842.14056,609.60841 L 887.06883,609.6266 L 887.08932,607.06592 C 887.11902,603.34551 890.09555,597.50239 893.70602,594.07693 C 907.7472,580.75526 930.96622,590.7353 930.96622,610.09218 C 930.96622,629.44906 907.7472,639.4291 893.70602,626.10743 C 890.09555,622.68197 887.11902,616.83885 887.08932,613.11844 L 887.06883,610.55776 L 842.12026,610.55776 L 797.17178,610.55776 L 788.4434,621.73163 L 779.71512,632.9055 L 762.77013,632.9055 L 745.82513,632.9055 L 737.99709,621.74198 L 730.16905,610.57846 L 685.24078,610.56811 L 640.31251,610.55776 L 640.29202,613.11844 C 640.24192,619.39755 633.90047,627.68285 626.91425,630.59693 C 622.27892,632.53041 614.58174,632.53041 609.94641,630.59693 C 602.96022,627.68285 596.61877,619.39755 596.56862,613.11844 L 596.54817,610.55776 L 551.38711,610.55776 L 506.22605,610.55776 L 506.2056,613.11844 C 506.15545,619.39755 499.81399,627.68285 492.8278,630.59693 C 488.19247,632.53041 480.49529,632.53041 475.85996,630.59693 C 468.87377,627.68285 462.53232,619.39755 462.48217,613.11844 L 462.46172,610.55776 L 417.51318,610.55776 L 372.56465,610.55776 L 363.83633,621.73163 L 355.10802,632.9055 L 338.16304,632.9055 L 321.21806,632.9055 L 313.39001,621.74198 L 305.56195,610.57846 L 260.63368,610.56811 L 215.7054,610.55776 L 215.68496,613.11844 C 215.6348,619.39755 209.29335,627.68285 202.30716,630.59693 C 197.67183,632.53041 189.97465,632.53041 185.33932,630.59693 C 178.35313,627.68285 172.01168,619.39755 171.96152,613.11844 L 171.94108,610.55776 L 126.78001,610.55776 L 81.61895,610.55776 L 81.5985,613.11844 C 81.54835,619.39755 75.2069,627.68285 68.22071,630.59693 C 63.58538,632.53041 55.8882,632.53041 51.25287,630.59693 C 44.26668,627.68285 37.92523,619.39755 37.87507,613.11844 L 37.85463,610.55776 L -7.0939092,610.55776 L -52.042443,610.55776 L -60.770764,621.73163 L -69.499075,632.9055 L -86.444051,632.9055 L -103.38903,632.9055 L -111.21708,621.74198 L -119.04515,610.57846 L -163.97342,610.56811 L -208.90169,610.55776 L -208.90169,612.91556 C -208.90169,618.47471 -214.47565,626.69494 -220.3211,629.7564 C -224.09759,631.73428 -230.24059,632.63042 -234.67013,631.84962 z M -61.309288,621.23476 C -56.702367,615.32799 -52.933075,610.26877 -52.933075,609.99206 C -52.933075,609.71534 -56.285237,604.70564 -60.382323,598.85939 L -67.83157,588.22985 L -84.616779,588.21993 L -101.40199,588.21002 L -109.57224,598.68552 C -114.06587,604.44705 -117.82608,609.49325 -117.92823,609.8993 C -118.0304,610.30535 -114.76183,615.43065 -110.66474,621.28885 L -103.21549,631.94014 L -86.450495,631.95724 L -69.685501,631.97434 L -61.309288,621.23476 z M -85.762855,613.20502 C -87.236921,611.73094 -87.260461,607.54579 -85.802876,606.08821 C -84.474247,604.75958 -80.737977,604.60532 -79.970332,605.84739 C -79.672362,606.32952 -80.590426,606.64378 -82.010473,606.54576 C -84.372593,606.38272 -84.592373,606.6439 -84.592373,609.61385 C -84.592373,612.05866 -84.157179,612.94396 -82.829686,613.19961 C -81.437766,613.46767 -81.174603,613.12759 -81.578566,611.58284 C -81.927675,610.24784 -81.653692,609.6266 -80.715816,609.6266 C -79.8232,609.6266 -79.445784,610.36095 -79.639046,611.7217 C -79.982503,614.14001 -83.883065,615.0848 -85.762855,613.20502 z M -76.91034,613.6657 C -75.464348,613.08222 -75.357312,607.76429 -76.791562,607.76429 C -77.513682,607.76429 -77.478438,607.33257 -76.677551,606.36756 C -74.709814,603.99657 -73.884083,604.79937 -73.884083,609.08343 C -73.884083,611.50226 -73.404715,613.38947 -72.720139,613.6657 C -72.079969,613.92401 -73.022764,614.13535 -74.815239,614.13535 C -76.607714,614.13535 -77.55051,613.92401 -76.91034,613.6657 z M 363.2978,621.23476 C 367.90473,615.32799 371.67402,610.26877 371.67402,609.99206 C 371.67402,609.71534 368.32186,604.70564 364.22477,598.85939 L 356.77552,588.22985 L 339.99031,588.21993 L 323.2051,588.21002 L 315.03486,598.68552 C 310.54122,604.44705 306.78102,609.49325 306.67886,609.8993 C 306.57669,610.30535 309.84527,615.43065 313.94235,621.28885 L 321.3916,631.94014 L 338.1566,631.95724 L 354.92159,631.97434 L 363.2978,621.23476 z M 338.84424,613.20502 C 337.37017,611.73094 337.34663,607.54579 338.80421,606.08821 C 340.13284,604.75958 343.86912,604.60532 344.63676,605.84739 C 344.93473,606.32952 344.01667,606.64378 342.59662,606.54576 C 340.2345,606.38272 340.01472,606.6439 340.01472,609.61385 C 340.01472,612.05866 340.44991,612.94396 341.7774,613.19961 C 343.16932,613.46767 343.43249,613.12759 343.02852,611.58284 C 342.67942,610.24784 342.9534,609.6266 343.89128,609.6266 C 344.78389,609.6266 345.16131,610.36095 344.96805,611.7217 C 344.62459,614.14001 340.72402,615.0848 338.84424,613.20502 z M 348.86246,611.02152 C 351.3178,608.48824 351.77409,607.51175 350.90743,606.64509 C 350.04077,605.77843 349.54254,605.77883 348.67447,606.6469 C 347.05902,608.26235 345.6243,608.02323 346.99839,606.36756 C 348.49354,604.566 351.10315,604.58165 352.61327,606.40123 C 353.60582,607.59718 353.37833,608.27215 351.22531,610.51942 L 348.65025,613.20722 L 351.31615,613.60528 C 353.2225,613.88994 352.80249,614.0431 349.84198,614.14287 L 345.70191,614.28238 L 348.86246,611.02152 z M 787.90492,621.23476 C 792.51181,615.32799 796.28113,610.26877 796.28113,609.99206 C 796.28113,609.71534 792.92897,604.70564 788.83188,598.85939 L 781.38263,588.22985 L 764.59743,588.21993 L 747.81222,588.21002 L 739.64198,598.68552 C 735.14831,604.44705 731.38812,609.49325 731.28597,609.8993 C 731.18382,610.30535 734.45237,615.43065 738.54945,621.28885 L 745.9987,631.94014 L 762.76371,631.95724 L 779.5287,631.97434 L 787.90492,621.23476 z M 763.45137,613.20502 C 761.97725,611.73094 761.95379,607.54579 763.41133,606.08821 C 764.73999,604.75958 768.47626,604.60532 769.2439,605.84739 C 769.54187,606.32952 768.62375,606.64378 767.20374,606.54576 C 764.84158,606.38272 764.62183,606.6439 764.62183,609.61385 C 764.62183,612.05866 765.05705,612.94396 766.38451,613.19961 C 767.7764,613.46767 768.03964,613.12759 767.63561,611.58284 C 767.28652,610.24784 767.56046,609.6266 768.49842,609.6266 C 769.39102,609.6266 769.76842,610.36095 769.57521,611.7217 C 769.2317,614.14001 765.33109,615.0848 763.45137,613.20502 z M 771.11683,613.3139 C 770.73179,612.69089 771.3403,612.55173 772.82261,612.92378 C 775.70184,613.64641 777.18694,611.67523 774.97945,610.06104 C 773.56586,609.02738 773.55767,608.8602 774.8962,608.34657 C 777.22568,607.45267 775.4048,605.68135 772.82261,606.32943 C 771.3403,606.70148 770.73179,606.56232 771.11683,605.9393 C 771.44608,605.40664 772.68694,604.97082 773.87435,604.97082 C 776.43848,604.97082 778.76627,607.25717 777.19243,608.22987 C 776.45933,608.68297 776.4787,609.23221 777.26125,610.17508 C 778.09742,611.18265 778.08141,611.8145 777.19243,612.88565 C 775.86572,614.48427 772.00822,614.75618 771.11683,613.3139 z M -221.94854,629.18632 C -214.18979,625.2281 -209.83285,618.36163 -209.83285,610.09218 C -209.83285,598.37198 -219.06365,589.14117 -230.78385,589.14117 C -248.95847,589.14117 -258.43565,610.46807 -246.39003,624.26038 C -240.71388,630.75959 -229.4731,633.02506 -221.94854,629.18632 z M -232.18059,611.16766 C -232.18059,609.23549 -231.47352,607.41305 -230.31828,606.36756 C -228.52114,604.74117 -228.39079,604.74117 -226.59365,606.36756 C -224.65119,608.12547 -223.92684,614.28238 -225.6625,614.28238 C -226.17463,614.28238 -226.59365,613.65385 -226.59365,612.88565 C -226.59365,612.10969 -227.42135,611.48891 -228.45596,611.48891 C -229.49058,611.48891 -230.31828,612.10969 -230.31828,612.88565 C -230.31828,613.65385 -230.7373,614.28238 -231.24943,614.28238 C -231.76157,614.28238 -232.18059,612.88075 -232.18059,611.16766 z M -226.77092,608.92823 C -226.94351,608.032 -227.70178,607.29871 -228.45596,607.29871 C -229.21013,607.29871 -229.96841,608.032 -230.14101,608.92823 C -230.36119,610.07155 -229.85842,610.55776 -228.45596,610.55776 C -227.0535,610.55776 -226.55073,610.07155 -226.77092,608.92823 z M -222.17066,613.6657 C -220.72467,613.08222 -220.61763,607.76429 -222.05188,607.76429 C -222.774,607.76429 -222.73876,607.33257 -221.93787,606.36756 C -219.97013,603.99657 -219.1444,604.79937 -219.1444,609.08343 C -219.1444,611.50226 -218.66504,613.38947 -217.98046,613.6657 C -217.34029,613.92401 -218.28309,614.13535 -220.07556,614.13535 C -221.86804,614.13535 -222.81083,613.92401 -222.17066,613.6657 z M 68.57209,629.18632 C 76.33085,625.2281 80.6878,618.36163 80.6878,610.09218 C 80.6878,598.37198 71.45699,589.14117 59.73679,589.14117 C 41.56217,589.14117 32.084988,610.46807 44.13062,624.26038 C 49.80677,630.75959 61.04754,633.02506 68.57209,629.18632 z M 58.34006,611.16766 C 58.34006,609.23549 59.04711,607.41305 60.20237,606.36756 C 61.99951,604.74117 62.12985,604.74117 63.92699,606.36756 C 65.86946,608.12547 66.5938,614.28238 64.85815,614.28238 C 64.34601,614.28238 63.92699,613.65385 63.92699,612.88565 C 63.92699,612.10969 63.0993,611.48891 62.06468,611.48891 C 61.03006,611.48891 60.20237,612.10969 60.20237,612.88565 C 60.20237,613.65385 59.78335,614.28238 59.27121,614.28238 C 58.75908,614.28238 58.34006,612.88075 58.34006,611.16766 z M 63.74973,608.92823 C 63.57713,608.032 62.81886,607.29871 62.06468,607.29871 C 61.3105,607.29871 60.55223,608.032 60.37963,608.92823 C 60.15945,610.07155 60.66222,610.55776 62.06468,610.55776 C 63.46714,610.55776 63.96991,610.07155 63.74973,608.92823 z M 69.51569,611.02152 C 71.97103,608.48824 72.42732,607.51175 71.56065,606.64509 C 70.694,605.77843 70.19577,605.77883 69.3277,606.6469 C 67.71225,608.26235 66.27753,608.02323 67.65161,606.36756 C 69.14677,604.566 71.75638,604.58165 73.26649,606.40123 C 74.25905,607.59718 74.03156,608.27215 71.87854,610.51942 L 69.30348,613.20722 L 71.96938,613.60528 C 73.87573,613.88994 73.45571,614.0431 70.49521,614.14287 L 66.35514,614.28238 L 69.51569,611.02152 z M 202.65854,629.18632 C 210.4173,625.2281 214.77425,618.36163 214.77425,610.09218 C 214.77425,598.37198 205.54344,589.14117 193.82324,589.14117 C 175.64862,589.14117 166.17144,610.46807 178.21707,624.26038 C 183.89322,630.75959 195.13399,633.02506 202.65854,629.18632 z M 192.42651,609.6266 C 192.42651,605.11831 192.51139,604.97082 195.10596,604.97082 C 198.07992,604.97082 200.66569,607.16617 198.9446,608.22987 C 198.21146,608.68297 198.23088,609.23221 199.0134,610.17508 C 200.58449,612.06813 198.47799,614.28238 195.10596,614.28238 C 192.51139,614.28238 192.42651,614.1349 192.42651,609.6266 z M 197.54786,611.48891 C 197.54786,610.73474 196.81458,609.97646 195.91834,609.80387 C 194.77502,609.58368 194.28882,610.08645 194.28882,611.48891 C 194.28882,612.89137 194.77502,613.39414 195.91834,613.17396 C 196.81458,613.00136 197.54786,612.24309 197.54786,611.48891 z M 197.48165,607.28596 C 197.36381,605.65156 194.28882,605.66384 194.28882,607.29871 C 194.28882,608.25777 194.8991,608.71447 195.91834,608.51818 C 196.81458,608.34558 197.51807,607.79108 197.48165,607.28596 z M 202.43643,613.6657 C 203.88242,613.08222 203.98946,607.76429 202.55521,607.76429 C 201.83309,607.76429 201.86833,607.33257 202.66922,606.36756 C 204.63696,603.99657 205.46269,604.79937 205.46269,609.08343 C 205.46269,611.50226 205.94206,613.38947 206.62663,613.6657 C 207.2668,613.92401 206.32401,614.13535 204.53153,614.13535 C 202.73906,614.13535 201.79626,613.92401 202.43643,613.6657 z M 493.17918,629.18632 C 500.93795,625.2281 505.29489,618.36163 505.29489,610.09218 C 505.29489,598.37198 496.06408,589.14117 484.34388,589.14117 C 466.16926,589.14117 456.69208,610.46807 468.73771,624.26038 C 474.41386,630.75959 485.65463,633.02506 493.17918,629.18632 z M 482.94715,609.6266 C 482.94715,605.11831 483.03203,604.97082 485.62661,604.97082 C 488.60056,604.97082 491.18633,607.16617 489.46524,608.22987 C 488.7321,608.68297 488.75153,609.23221 489.53404,610.17508 C 491.10514,612.06813 488.99863,614.28238 485.62661,614.28238 C 483.03203,614.28238 482.94715,614.1349 482.94715,609.6266 z M 488.06851,611.48891 C 488.06851,610.73474 487.33522,609.97646 486.43898,609.80387 C 485.29566,609.58368 484.80946,610.08645 484.80946,611.48891 C 484.80946,612.89137 485.29566,613.39414 486.43898,613.17396 C 487.33522,613.00136 488.06851,612.24309 488.06851,611.48891 z M 488.00229,607.28596 C 487.88445,605.65156 484.80946,605.66384 484.80946,607.29871 C 484.80946,608.25777 485.41974,608.71447 486.43898,608.51818 C 487.33522,608.34558 488.03871,607.79108 488.00229,607.28596 z M 494.12278,611.02152 C 496.57813,608.48824 497.03441,607.51175 496.16775,606.64509 C 495.30109,605.77843 494.80286,605.77883 493.93479,606.6469 C 492.31934,608.26235 490.88462,608.02323 492.25871,606.36756 C 493.75386,604.566 496.36348,604.58165 497.87359,606.40123 C 498.86614,607.59718 498.63865,608.27215 496.48563,610.51942 L 493.91057,613.20722 L 496.57647,613.60528 C 498.48282,613.88994 498.06281,614.0431 495.1023,614.14287 L 490.96223,614.28238 L 494.12278,611.02152 z M 627.26563,629.18632 C 635.02438,625.2281 639.38135,618.36163 639.38135,610.09218 C 639.38135,598.37198 630.15053,589.14117 618.43033,589.14117 C 600.25572,589.14117 590.77853,610.46807 602.82416,624.26038 C 608.50031,630.75959 619.74108,633.02506 627.26563,629.18632 z M 618.19101,613.20502 C 616.6171,611.63111 616.72893,607.31401 618.37908,605.94451 C 620.12188,604.49812 623.74124,605.0387 624.32854,606.83313 C 624.71923,608.02677 624.56231,608.04548 623.2494,606.96175 C 620.95977,605.07182 618.89591,606.33514 618.89591,609.6266 C 618.89591,612.91806 620.95977,614.18139 623.2494,612.29146 C 624.56229,611.20774 624.71939,611.22644 624.32967,612.42007 C 623.74741,614.20347 619.7062,614.72021 618.19101,613.20502 z M 627.04352,613.6657 C 628.48952,613.08222 628.59655,607.76429 627.1623,607.76429 C 626.44018,607.76429 626.47543,607.33257 627.27631,606.36756 C 629.24405,603.99657 630.06978,604.79937 630.06978,609.08343 C 630.06978,611.50226 630.54915,613.38947 631.23373,613.6657 C 631.8739,613.92401 630.9311,614.13535 629.13863,614.13535 C 627.34615,614.13535 626.40336,613.92401 627.04352,613.6657 z M 917.78627,629.18632 C 925.54503,625.2281 929.902,618.36163 929.902,610.09218 C 929.902,598.37198 920.67117,589.14117 908.95099,589.14117 C 890.77641,589.14117 881.2992,610.46807 893.34482,624.26038 C 899.02096,630.75959 910.26178,633.02506 917.78627,629.18632 z M 908.71169,613.20502 C 907.13775,611.63111 907.24959,607.31401 908.89978,605.94451 C 910.64253,604.49812 914.26193,605.0387 914.84921,606.83313 C 915.23993,608.02677 915.08294,608.04548 913.7701,606.96175 C 911.48048,605.07182 909.41657,606.33514 909.41657,609.6266 C 909.41657,612.91806 911.48048,614.18139 913.7701,612.29146 C 915.08294,611.20774 915.24002,611.22644 914.85033,612.42007 C 914.26808,614.20347 910.22686,614.72021 908.71169,613.20502 z M 918.7299,611.02152 C 921.18527,608.48824 921.64153,607.51175 920.7749,606.64509 C 919.90818,605.77843 919.41002,605.77883 918.5419,606.6469 C 916.92644,608.26235 915.49171,608.02323 916.86582,606.36756 C 918.36098,604.566 920.97054,604.58165 922.48069,606.40123 C 923.47321,607.59718 923.24573,608.27215 921.09271,610.51942 L 918.51769,613.20722 L 921.18359,613.60528 C 923.08994,613.88994 922.6699,614.0431 919.70938,614.14287 L 915.56937,614.28238 L 918.7299,611.02152 z "
     id="path1462"
     inkscape:export-filename="/home/alpt/tmp/netsukuku/proto/doc/topology/fig/path1472.png"
     inkscape:export-xdpi="90"
     inkscape:export-ydpi="90" />
  <path
     sodipodi:type="arc"
     style="fill:none;fill-opacity:0.4025974;stroke:#000000;stroke-width:1pt;stroke-linecap:butt;stroke-linejoin:miter;stroke-opacity:1"
     id="path1468"
     sodipodi:cx="-87.525665"
     sodipodi:cy="607.82391"
     sodipodi:rx="176.20299"
     sodipodi:ry="176.20299"
     d="M 88.677322 607.82391 A 176.20299 176.20299 0 1 1  -263.72865,607.82391 A 176.20299 176.20299 0 1 1  88.677322 607.82391 z"
     inkscape:export-filename="/home/alpt/tmp/netsukuku/proto/doc/topology/fig/path1472.png"
     inkscape:export-xdpi="90"
     inkscape:export-ydpi="90" />
  <path
     d="M 88.677322 607.82391 A 176.20299 176.20299 0 1 1  -263.72865,607.82391 A 176.20299 176.20299 0 1 1  88.677322 607.82391 z"
     sodipodi:ry="176.20299"
     sodipodi:rx="176.20299"
     sodipodi:cy="607.82391"
     sodipodi:cx="-87.525665"
     id="path1470"
     style="fill:none;fill-opacity:0.4025974;stroke:#000000;stroke-width:1pt;stroke-linecap:butt;stroke-linejoin:miter;stroke-opacity:1"
     sodipodi:type="arc"
     transform="translate(423.8085,-4.606614)"
     inkscape:export-filename="/home/alpt/tmp/netsukuku/proto/doc/topology/fig/path1472.png"
     inkscape:export-xdpi="90"
     inkscape:export-ydpi="90" />
  <path
     transform="translate(849.9203,3.454961)"
     sodipodi:type="arc"
     style="fill:none;fill-opacity:0.4025974;stroke:#000000;stroke-width:1pt;stroke-linecap:butt;stroke-linejoin:miter;stroke-opacity:1"
     id="path1472"
     sodipodi:cx="-87.525665"
     sodipodi:cy="607.82391"
     sodipodi:rx="176.20299"
     sodipodi:ry="176.20299"
     d="M 88.677322 607.82391 A 176.20299 176.20299 0 1 1  -263.72865,607.82391 A 176.20299 176.20299 0 1 1  88.677322 607.82391 z"
     inkscape:export-xdpi="90"
     inkscape:export-ydpi="90" />
</svg>
